<svg xmlns="http://www.w3.org/2000/svg" xmlns:xlink="http://www.w3.org/1999/xlink">
  <symbol id="chevron-left-outline" viewBox="0 0 20 20" fill="none">
    <path d="M12.5001 15.8337L6.66675 10.0003L12.5001 4.16699" stroke-width="2" stroke-linecap="round" stroke-linejoin="round"/>
  </symbol>
  <symbol id="chevron-right-outline" viewBox="0 0 20 20" fill="none">
    <path d="M7.5 4.16699L13.3333 10.0003L7.5 15.8337" stroke-width="2" stroke-linecap="round" stroke-linejoin="round"/>
  </symbol>
  <symbol id="chevron-down-outline" fill="none" viewBox="0 0 24 24" stroke-width="2">
    <path stroke-linecap="round" stroke-linejoin="round" d="M19.5 8.25l-7.5 7.5-7.5-7.5" />
  </symbol>
  <symbol id="arrow-left-on-rectangle" fill="none" viewBox="0 0 24 24" stroke-width="1.5">
    <path stroke-linecap="round" stroke-linejoin="round" d="M15.75 9V5.25A2.25 2.25 0 0013.5 3h-6a2.25 2.25 0 00-2.25 2.25v13.5A2.25 2.25 0 007.5 21h6a2.25 2.25 0 002.25-2.25V15M12 9l-3 3m0 0l3 3m-3-3h12.75" />
  </symbol>
  <symbol id="user-plus" fill="none" viewBox="0 0 24 24" stroke-width="1.5">
    <path stroke-linecap="round" stroke-linejoin="round" d="M19 7.5v3m0 0v3m0-3h3m-3 0h-3m-2.25-4.125a3.375 3.375 0 11-6.75 0 3.375 3.375 0 016.75 0zM4 19.235v-.11a6.375 6.375 0 0112.75 0v.109A12.318 12.318 0 0110.374 21c-2.331 0-4.512-.645-6.374-1.766z" />
  </symbol>
  <symbol id="search" viewBox="0 0 20 20" fill="none">
    <path d="M17.5 17.5L12.5 12.5M14.1667 8.33333C14.1667 9.09938 14.0158 9.85792 13.7226 10.5657C13.4295 11.2734 12.9998 11.9164 12.4581 12.4581C11.9164 12.9998 11.2734 13.4295 10.5657 13.7226C9.85792 14.0158 9.09938 14.1667 8.33333 14.1667C7.56729 14.1667 6.80875 14.0158 6.10101 13.7226C5.39328 13.4295 4.75022 12.9998 4.20854 12.4581C3.66687 11.9164 3.23719 11.2734 2.94404 10.5657C2.65088 9.85792 2.5 9.09938 2.5 8.33333C2.5 6.78624 3.11458 5.30251 4.20854 4.20854C5.30251 3.11458 6.78624 2.5 8.33333 2.5C9.88043 2.5 11.3642 3.11458 12.4581 4.20854C13.5521 5.30251 14.1667 6.78624 14.1667 8.33333Z" stroke-width="2" stroke-linecap="round" stroke-linejoin="round"/>
  </symbol>
  <symbol id="star" viewBox="0 0 16 16">
    <path d="M7.18605 2.85643C7.42605 2.11963 8.46845 2.11963 8.70765 2.85643L9.56365 5.49003C9.61595 5.65042 9.71761 5.79018 9.85411 5.88932C9.99061 5.98846 10.155 6.04191 10.3237 6.04203H13.0933C13.8685 6.04203 14.1901 7.03403 13.5637 7.49003L11.3237 9.11723C11.1869 9.21646 11.085 9.35644 11.0327 9.51712C10.9804 9.67779 10.9803 9.8509 11.0325 10.0116L11.8885 12.6452C12.1285 13.382 11.2845 13.9956 10.6565 13.5396L8.41645 11.9124C8.27982 11.8132 8.1153 11.7598 7.94645 11.7598C7.77761 11.7598 7.61309 11.8132 7.47645 11.9124L5.23645 13.5396C4.60925 13.9956 3.76605 13.382 4.00525 12.6452L4.86125 10.0116C4.91339 9.8509 4.9133 9.67779 4.86099 9.51712C4.80868 9.35644 4.70683 9.21646 4.57005 9.11723L2.33085 7.49083C1.70445 7.03483 2.02685 6.04283 2.80125 6.04283H5.57005C5.73889 6.04288 5.90342 5.9895 6.04007 5.89035C6.17673 5.7912 6.27851 5.65135 6.33085 5.49083L7.18685 2.85723L7.18605 2.85643Z" />
  </symbol>
  <symbol id="collection-outline" viewBox="0 0 20 20" fill="none">
    <path d="M15.8333 9.16667H4.16667M15.8333 9.16667C16.2754 9.16667 16.6993 9.34226 17.0118 9.65482C17.3244 9.96738 17.5 10.3913 17.5 10.8333V15.8333C17.5 16.2754 17.3244 16.6993 17.0118 17.0118C16.6993 17.3244 16.2754 17.5 15.8333 17.5H4.16667C3.72464 17.5 3.30072 17.3244 2.98816 17.0118C2.67559 16.6993 2.5 16.2754 2.5 15.8333V10.8333C2.5 10.3913 2.67559 9.96738 2.98816 9.65482C3.30072 9.34226 3.72464 9.16667 4.16667 9.16667M15.8333 9.16667V7.5C15.8333 7.05797 15.6577 6.63405 15.3452 6.32149C15.0326 6.00893 14.6087 5.83333 14.1667 5.83333M4.16667 9.16667V7.5C4.16667 7.05797 4.34226 6.63405 4.65482 6.32149C4.96738 6.00893 5.39131 5.83333 5.83333 5.83333M14.1667 5.83333V4.16667C14.1667 3.72464 13.9911 3.30072 13.6785 2.98816C13.366 2.67559 12.942 2.5 12.5 2.5H7.5C7.05797 2.5 6.63405 2.67559 6.32149 2.98816C6.00893 3.30072 5.83333 3.72464 5.83333 4.16667V5.83333M14.1667 5.83333H5.83333" stroke-width="1.5" stroke-linecap="round" stroke-linejoin="round"/>
  </symbol>
  <symbol id="sparkles-outline" viewBox="0 0 20 20" fill="none">
    <path d="M4.16667 2.5V5.83333M2.5 4.16667H5.83333M5 14.1667V17.5M3.33333 15.8333H6.66667M10.8333 2.5L12.7383 8.21417L17.5 10L12.7383 11.7858L10.8333 17.5L8.92833 11.7858L4.16667 10L8.92833 8.21417L10.8333 2.5Z" stroke-width="1.5" stroke-linecap="round" stroke-linejoin="round"/>
  </symbol>
  <symbol id="heart-outline" viewBox="0 0 20 20" fill="none">
    <path d="M3.59837 5.26499C3.25014 5.61321 2.97391 6.02661 2.78546 6.48158C2.597 6.93656 2.5 7.4242 2.5 7.91666C2.5 8.40912 2.597 8.89676 2.78546 9.35173C2.97391 9.80671 3.25014 10.2201 3.59837 10.5683L10 16.97L16.4017 10.5683C17.105 9.86506 17.5001 8.91123 17.5001 7.91666C17.5001 6.92209 17.105 5.96826 16.4017 5.26499C15.6984 4.56173 14.7446 4.16664 13.75 4.16664C12.7555 4.16664 11.8016 4.56173 11.0984 5.26499L10 6.36333L8.9017 5.26499C8.55348 4.91677 8.14008 4.64054 7.68511 4.45208C7.23013 4.26362 6.74249 4.16663 6.25003 4.16663C5.75757 4.16663 5.26993 4.26362 4.81496 4.45208C4.35998 4.64054 3.94659 4.91677 3.59837 5.26499Z" stroke-linecap="round" stroke-linejoin="round"/>
  </symbol>
  <symbol id="heart" viewBox="0 0 24 24">
    <path fill-rule="evenodd" clip-rule="evenodd" d="M3.80625 6.20659C4.70639 5.30673 5.92707 4.80122 7.19985 4.80122C8.47264 4.80122 9.69332 5.30673 10.5935 6.20659L11.9999 7.61179L13.4063 6.20659C13.849 5.74815 14.3787 5.38247 14.9643 5.13091C15.5499 4.87934 16.1798 4.74693 16.8171 4.74139C17.4545 4.73585 18.0865 4.8573 18.6764 5.09865C19.2663 5.34 19.8023 5.69641 20.253 6.1471C20.7036 6.59778 21.0601 7.13371 21.3014 7.72361C21.5427 8.31352 21.6642 8.94558 21.6587 9.58292C21.6531 10.2203 21.5207 10.8501 21.2691 11.4357C21.0176 12.0214 20.6519 12.551 20.1935 12.9938L11.9999 21.1886L3.80625 12.9938C2.90639 12.0937 2.40088 10.873 2.40088 9.60019C2.40088 8.32741 2.90639 7.10673 3.80625 6.20659Z" />
  </symbol>
  <symbol id="clock-outline" viewBox="0 0 20 20" fill="none">
    <path d="M10 6.66667V10L12.5 12.5M17.5 10C17.5 10.9849 17.306 11.9602 16.9291 12.8701C16.5522 13.7801 15.9997 14.6069 15.3033 15.3033C14.6069 15.9997 13.7801 16.5522 12.8701 16.9291C11.9602 17.306 10.9849 17.5 10 17.5C9.01509 17.5 8.03982 17.306 7.12987 16.9291C6.21993 16.5522 5.39314 15.9997 4.6967 15.3033C4.00026 14.6069 3.44781 13.7801 3.0709 12.8701C2.69399 11.9602 2.5 10.9849 2.5 10C2.5 8.01088 3.29018 6.10322 4.6967 4.6967C6.10322 3.29018 8.01088 2.5 10 2.5C11.9891 2.5 13.8968 3.29018 15.3033 4.6967C16.7098 6.10322 17.5 8.01088 17.5 10Z" stroke-width="1.5" stroke-linecap="round" stroke-linejoin="round"/>
  </symbol>
  <symbol id="user-outline" viewBox="0 0 24 24" fill="none">
    <path d="M5.121 17.804C7.21942 16.6179 9.58958 15.9963 12 16C14.5 16 16.847 16.655 18.879 17.804M15 10C15 10.7956 14.6839 11.5587 14.1213 12.1213C13.5587 12.6839 12.7956 13 12 13C11.2044 13 10.4413 12.6839 9.87868 12.1213C9.31607 11.5587 9 10.7956 9 10C9 9.20435 9.31607 8.44129 9.87868 7.87868C10.4413 7.31607 11.2044 7 12 7C12.7956 7 13.5587 7.31607 14.1213 7.87868C14.6839 8.44129 15 9.20435 15 10ZM21 12C21 13.1819 20.7672 14.3522 20.3149 15.4442C19.8626 16.5361 19.1997 17.5282 18.364 18.364C17.5282 19.1997 16.5361 19.8626 15.4442 20.3149C14.3522 20.7672 13.1819 21 12 21C10.8181 21 9.64778 20.7672 8.55585 20.3149C7.46392 19.8626 6.47177 19.1997 5.63604 18.364C4.80031 17.5282 4.13738 16.5361 3.68508 15.4442C3.23279 14.3522 3 13.1819 3 12C3 9.61305 3.94821 7.32387 5.63604 5.63604C7.32387 3.94821 9.61305 3 12 3C14.3869 3 16.6761 3.94821 18.364 5.63604C20.0518 7.32387 21 9.61305 21 12Z" stroke-width="1.5" stroke-linecap="round" stroke-linejoin="round"/>
  </symbol>
  <symbol id="users-outline" viewBox="0 0 24 24" fill="none">
    <path d="M17 20H22V18C22 17.3765 21.8057 16.7686 21.4441 16.2606C21.0826 15.7527 20.5718 15.37 19.9828 15.1658C19.3937 14.9615 18.7556 14.9459 18.1573 15.121C17.5589 15.2962 17.03 15.6534 16.644 16.143M17 20H7M17 20V18C17 17.344 16.874 16.717 16.644 16.143M16.644 16.143C16.2726 15.215 15.6318 14.4195 14.804 13.8591C13.9762 13.2988 12.9996 12.9993 12 12.9993C11.0004 12.9993 10.0238 13.2988 9.196 13.8591C8.36825 14.4195 7.72736 15.215 7.356 16.143M7 20H2V18C2.00005 17.3765 2.19434 16.7686 2.55586 16.2606C2.91739 15.7527 3.42819 15.37 4.01725 15.1658C4.60632 14.9615 5.24438 14.9459 5.84274 15.121C6.4411 15.2962 6.97003 15.6534 7.356 16.143M7 20V18C7 17.344 7.126 16.717 7.356 16.143M15 7C15 7.79565 14.6839 8.55871 14.1213 9.12132C13.5587 9.68393 12.7957 10 12 10C11.2044 10 10.4413 9.68393 9.87868 9.12132C9.31607 8.55871 9 7.79565 9 7C9 6.20435 9.31607 5.44129 9.87868 4.87868C10.4413 4.31607 11.2044 4 12 4C12.7957 4 13.5587 4.31607 14.1213 4.87868C14.6839 5.44129 15 6.20435 15 7ZM21 10C21 10.5304 20.7893 11.0391 20.4142 11.4142C20.0391 11.7893 19.5304 12 19 12C18.4696 12 17.9609 11.7893 17.5858 11.4142C17.2107 11.0391 17 10.5304 17 10C17 9.46957 17.2107 8.96086 17.5858 8.58579C17.9609 8.21071 18.4696 8 19 8C19.5304 8 20.0391 8.21071 20.4142 8.58579C20.7893 8.96086 21 9.46957 21 10ZM7 10C7 10.5304 6.78929 11.0391 6.41421 11.4142C6.03914 11.7893 5.53043 12 5 12C4.46957 12 3.96086 11.7893 3.58579 11.4142C3.21071 11.0391 3 10.5304 3 10C3 9.46957 3.21071 8.96086 3.58579 8.58579C3.96086 8.21071 4.46957 8 5 8C5.53043 8 6.03914 8.21071 6.41421 8.58579C6.78929 8.96086 7 9.46957 7 10Z" stroke-width="1.5" stroke-linecap="round" stroke-linejoin="round"/>
  </symbol>
  <symbol id="freebsd" width="20" height="23" viewBox="0 0 20 23">
    <path d="M13.5575 4.29464C14.053 3.79911 18.7137 0.857143 19.7717 1.91964C20.8298 2.97768 17.8923 7.63839 17.3967 8.13393C16.9012 8.62946 15.6378 8.17411 14.5798 7.11161C13.5173 6.05357 13.0575 4.79018 13.5575 4.29464ZM4.90567 3.04018C3.28513 2.12054 0.981562 1.09821 0.249419 1.83482C-0.491652 2.57589 0.566384 4.93304 1.49495 6.55357C2.32085 5.11607 3.49495 3.90625 4.90567 3.04018ZM18.1557 7.76786C18.303 8.27232 18.2762 8.69196 18.0351 8.93304C17.1289 9.83929 14.1289 7.72768 13.1557 5.80357C12.3521 4.36161 12.6601 3.41964 13.8208 3.62946C14.0753 3.46875 14.37 3.29018 14.6958 3.11161C13.3655 2.41964 11.8566 2.02679 10.2539 2.02679C4.93692 2.02679 0.628884 6.33482 0.628884 11.6518C0.628884 16.9643 4.93692 21.2768 10.2539 21.2768C15.5708 21.2768 19.8789 16.9688 19.8789 11.6518C19.8789 9.9375 19.428 8.32589 18.6423 6.92857C18.4682 7.24107 18.303 7.52232 18.1557 7.76786Z"/>
  </symbol>
  <symbol id="cloud-download-outline" viewBox="0 0 16 16" fill="none">
    <path d="M5.33362 10.6667C4.50226 10.6672 3.7007 10.3571 3.08621 9.79713C2.47172 9.23717 2.08866 8.46779 2.01219 7.63995C1.93571 6.81211 2.17135 5.98558 2.67286 5.32253C3.17437 4.65947 3.90556 4.20775 4.72295 4.056C4.86652 3.29178 5.27265 2.60176 5.8711 2.10527C6.46955 1.60878 7.2227 1.33704 8.00029 1.33704C8.77788 1.33704 9.53102 1.60878 10.1295 2.10527C10.7279 2.60176 11.134 3.29178 11.2776 4.056C12.0923 4.21084 12.82 4.66365 13.3188 5.32608C13.8177 5.98851 14.0518 6.81303 13.9755 7.63876C13.8992 8.46449 13.518 9.23217 12.9063 9.79201C12.2946 10.3519 11.4962 10.6637 10.667 10.6667M6.00029 12.6667L8.00029 14.6667M8.00029 14.6667L10.0003 12.6667M8.00029 14.6667V6.66667" stroke-width="1.2" stroke-linecap="round" stroke-linejoin="round"/>
  </symbol>
  <symbol id="cloud-outline" fill="none" viewBox="0 0 24 24" stroke-width="1.5" stroke="currentColor">
    <path stroke-linecap="round" stroke-linejoin="round" d="M2.25 15a4.5 4.5 0 004.5 4.5H18a3.75 3.75 0 001.332-7.257 3 3 0 00-3.758-3.848 5.25 5.25 0 00-10.233 2.33A4.502 4.502 0 002.25 15z" />
  </symbol>
  <symbol id="lock-closed-outline" fill="none" viewBox="0 0 24 24" stroke-width="1.5" stroke="currentColor">
    <path stroke-linecap="round" stroke-linejoin="round" d="M16.5 10.5V6.75a4.5 4.5 0 10-9 0v3.75m-.75 11.25h10.5a2.25 2.25 0 002.25-2.25v-6.75a2.25 2.25 0 00-2.25-2.25H6.75a2.25 2.25 0 00-2.25 2.25v6.75a2.25 2.25 0 002.25 2.25z" />
  </symbol>
  <symbol id="camera-outline" viewBox="0 0 20 20" fill="none">
    <path d="M13.125 8.75L17.0583 4.81667C17.1457 4.72937 17.2571 4.66993 17.3782 4.64586C17.4994 4.62179 17.625 4.63417 17.7391 4.68143C17.8532 4.72869 17.9508 4.80871 18.0195 4.91139C18.0882 5.01407 18.1249 5.1348 18.125 5.25833V14.7417C18.1249 14.8652 18.0882 14.9859 18.0195 15.0886C17.9508 15.1913 17.8532 15.2713 17.7391 15.3186C17.625 15.3658 17.4994 15.3782 17.3782 15.3541C17.2571 15.3301 17.1457 15.2706 17.0583 15.1833L13.125 11.25M3.75 15.625H11.25C11.7473 15.625 12.2242 15.4275 12.5758 15.0758C12.9275 14.7242 13.125 14.2473 13.125 13.75V6.25C13.125 5.75272 12.9275 5.27581 12.5758 4.92417C12.2242 4.57254 11.7473 4.375 11.25 4.375H3.75C3.25272 4.375 2.77581 4.57254 2.42417 4.92417C2.07254 5.27581 1.875 5.75272 1.875 6.25V13.75C1.875 14.2473 2.07254 14.7242 2.42417 15.0758C2.77581 15.4275 3.25272 15.625 3.75 15.625Z" stroke-width="1.5" stroke-linecap="round"/>
  </symbol>
  <symbol id="file-outline" viewBox="0 0 20 20" fill="none">
    <path d="M16.25 11.875V9.6875C16.25 8.94158 15.9537 8.22621 15.4262 7.69876C14.8988 7.17132 14.1834 6.875 13.4375 6.875H12.1875C11.9389 6.875 11.7004 6.77623 11.5246 6.60041C11.3488 6.4246 11.25 6.18614 11.25 5.9375V4.6875C11.25 3.94158 10.9537 3.22621 10.4262 2.69876C9.89879 2.17132 9.18342 1.875 8.4375 1.875H6.875M6.875 12.5H13.125M6.875 15H10M8.75 1.875H4.6875C4.17 1.875 3.75 2.295 3.75 2.8125V17.1875C3.75 17.705 4.17 18.125 4.6875 18.125H15.3125C15.83 18.125 16.25 17.705 16.25 17.1875V9.375C16.25 7.38588 15.4598 5.47822 14.0533 4.0717C12.6468 2.66518 10.7391 1.875 8.75 1.875Z" stroke-width="1.5" stroke-linecap="round" stroke-linejoin="round"/>
  </symbol>
  <symbol id="lightbulb-outline" viewBox="0 0 20 20" fill="none">
    <path d="M8.0525 14.1667H11.9467M10 2.5V3.33333M15.3033 4.69667L14.7142 5.28583M17.5 10H16.6667M3.33333 10H2.5M5.28583 5.28583L4.69667 4.69667M7.05333 12.9467C6.47072 12.3639 6.074 11.6215 5.91331 10.8132C5.75263 10.005 5.83521 9.1673 6.15061 8.40601C6.466 7.64471 7.00006 6.99403 7.68524 6.53624C8.37042 6.07845 9.17596 5.83411 10 5.83411C10.824 5.83411 11.6296 6.07845 12.3148 6.53624C12.9999 6.99403 13.534 7.64471 13.8494 8.40601C14.1648 9.1673 14.2474 10.005 14.0867 10.8132C13.926 11.6215 13.5293 12.3639 12.9467 12.9467L12.49 13.4025C12.2289 13.6636 12.0218 13.9736 11.8806 14.3148C11.7393 14.6559 11.6666 15.0216 11.6667 15.3908V15.8333C11.6667 16.2754 11.4911 16.6993 11.1785 17.0118C10.866 17.3244 10.442 17.5 10 17.5C9.55797 17.5 9.13405 17.3244 8.82149 17.0118C8.50893 16.6993 8.33333 16.2754 8.33333 15.8333V15.3908C8.33333 14.645 8.03667 13.9292 7.51 13.4025L7.05333 12.9467Z" stroke-width="1.5" stroke-linecap="round" stroke-linejoin="round"/>
  </symbol>
  <symbol id="shield-check-outline" viewBox="0 0 24 24" fill="none">
    <path d="M9 12L11 14L15 9.99997M20.618 5.98397C17.4561 6.15189 14.3567 5.05858 12 2.94397C9.64327 5.05858 6.5439 6.15189 3.382 5.98397C3.12754 6.96908 2.99918 7.98252 3 8.99997C3 14.591 6.824 19.29 12 20.622C17.176 19.29 21 14.592 21 8.99997C21 7.95797 20.867 6.94797 20.618 5.98397Z" stroke-width="2" stroke-linecap="round" stroke-linejoin="round"/>
  </symbol>
  <symbol id="dashboard-outline" viewBox="0 0 24 24" fill="none">
    <path d="M3.75 6C3.75 5.40326 3.98705 4.83097 4.40901 4.40901C4.83097 3.98705 5.40326 3.75 6 3.75H8.25C8.84674 3.75 9.41903 3.98705 9.84099 4.40901C10.2629 4.83097 10.5 5.40326 10.5 6V8.25C10.5 8.84674 10.2629 9.41903 9.84099 9.84099C9.41903 10.2629 8.84674 10.5 8.25 10.5H6C5.40326 10.5 4.83097 10.2629 4.40901 9.84099C3.98705 9.41903 3.75 8.84674 3.75 8.25V6ZM3.75 15.75C3.75 15.1533 3.98705 14.581 4.40901 14.159C4.83097 13.7371 5.40326 13.5 6 13.5H8.25C8.84674 13.5 9.41903 13.7371 9.84099 14.159C10.2629 14.581 10.5 15.1533 10.5 15.75V18C10.5 18.5967 10.2629 19.169 9.84099 19.591C9.41903 20.0129 8.84674 20.25 8.25 20.25H6C5.40326 20.25 4.83097 20.0129 4.40901 19.591C3.98705 19.169 3.75 18.5967 3.75 18V15.75ZM13.5 6C13.5 5.40326 13.7371 4.83097 14.159 4.40901C14.581 3.98705 15.1533 3.75 15.75 3.75H18C18.5967 3.75 19.169 3.98705 19.591 4.40901C20.0129 4.83097 20.25 5.40326 20.25 6V8.25C20.25 8.84674 20.0129 9.41903 19.591 9.84099C19.169 10.2629 18.5967 10.5 18 10.5H15.75C15.1533 10.5 14.581 10.2629 14.159 9.84099C13.7371 9.41903 13.5 8.84674 13.5 8.25V6ZM13.5 15.75C13.5 15.1533 13.7371 14.581 14.159 14.159C14.581 13.7371 15.1533 13.5 15.75 13.5H18C18.5967 13.5 19.169 13.7371 19.591 14.159C20.0129 14.581 20.25 15.1533 20.25 15.75V18C20.25 18.5967 20.0129 19.169 19.591 19.591C19.169 20.0129 18.5967 20.25 18 20.25H15.75C15.1533 20.25 14.581 20.0129 14.159 19.591C13.7371 19.169 13.5 18.5967 13.5 18V15.75Z" stroke-width="1.5" stroke-linecap="round" stroke-linejoin="round" />
  </symbol>
  <symbol id="credit-card-outline" viewBox="0 0 24 24" fill="none">
    <path d="M2.25 8.25H21.75M2.25 9H21.75M5.25 14.25H11.25M5.25 16.5H8.25M4.5 19.5H19.5C20.0967 19.5 20.669 19.2629 21.091 18.841C21.5129 18.419 21.75 17.8467 21.75 17.25V6.75C21.75 6.15326 21.5129 5.58097 21.091 5.15901C20.669 4.73705 20.0967 4.5 19.5 4.5H4.5C3.90326 4.5 3.33097 4.73705 2.90901 5.15901C2.48705 5.58097 2.25 6.15326 2.25 6.75V17.25C2.25 17.8467 2.48705 18.419 2.90901 18.841C3.33097 19.2629 3.90326 19.5 4.5 19.5Z" stroke-width="1.5" stroke-linecap="round" stroke-linejoin="round" />
  </symbol>
  <symbol id="cogs-outline" viewBox="0 0 24 24" fill="none">
    <path d="M10.325 4.317C10.751 2.561 13.249 2.561 13.675 4.317C13.7389 4.5808 13.8642 4.82578 14.0407 5.032C14.2172 5.23822 14.4399 5.39985 14.6907 5.50375C14.9414 5.60764 15.2132 5.65085 15.4838 5.62987C15.7544 5.60889 16.0162 5.5243 16.248 5.383C17.791 4.443 19.558 6.209 18.618 7.753C18.4769 7.98466 18.3924 8.24634 18.3715 8.51677C18.3506 8.78721 18.3938 9.05877 18.4975 9.30938C18.6013 9.55999 18.7627 9.78258 18.9687 9.95905C19.1747 10.1355 19.4194 10.2609 19.683 10.325C21.439 10.751 21.439 13.249 19.683 13.675C19.4192 13.7389 19.1742 13.8642 18.968 14.0407C18.7618 14.2172 18.6001 14.4399 18.4963 14.6907C18.3924 14.9414 18.3491 15.2132 18.3701 15.4838C18.3911 15.7544 18.4757 16.0162 18.617 16.248C19.557 17.791 17.791 19.558 16.247 18.618C16.0153 18.4769 15.7537 18.3924 15.4832 18.3715C15.2128 18.3506 14.9412 18.3938 14.6906 18.4975C14.44 18.6013 14.2174 18.7627 14.0409 18.9687C13.8645 19.1747 13.7391 19.4194 13.675 19.683C13.249 21.439 10.751 21.439 10.325 19.683C10.2611 19.4192 10.1358 19.1742 9.95929 18.968C9.7828 18.7618 9.56011 18.6001 9.30935 18.4963C9.05859 18.3924 8.78683 18.3491 8.51621 18.3701C8.24559 18.3911 7.98375 18.4757 7.752 18.617C6.209 19.557 4.442 17.791 5.382 16.247C5.5231 16.0153 5.60755 15.7537 5.62848 15.4832C5.64942 15.2128 5.60624 14.9412 5.50247 14.6906C5.3987 14.44 5.23726 14.2174 5.03127 14.0409C4.82529 13.8645 4.58056 13.7391 4.317 13.675C2.561 13.249 2.561 10.751 4.317 10.325C4.5808 10.2611 4.82578 10.1358 5.032 9.95929C5.23822 9.7828 5.39985 9.56011 5.50375 9.30935C5.60764 9.05859 5.65085 8.78683 5.62987 8.51621C5.60889 8.24559 5.5243 7.98375 5.383 7.752C4.443 6.209 6.209 4.442 7.753 5.382C8.749 5.99 10.049 5.452 10.325 4.317Z" stroke-width="1.5" stroke-linecap="round" stroke-linejoin="round"/>
    <path d="M15 12C15 12.7956 14.6839 13.5587 14.1213 14.1213C13.5587 14.6839 12.7956 15 12 15C11.2044 15 10.4413 14.6839 9.87868 14.1213C9.31607 13.5587 9 12.7956 9 12C9 11.2044 9.31607 10.4413 9.87868 9.87868C10.4413 9.31607 11.2044 9 12 9C12.7956 9 13.5587 9.31607 14.1213 9.87868C14.6839 10.4413 15 11.2044 15 12Z" stroke-width="1.5" stroke-linecap="round" stroke-linejoin="round"/>
  </symbol>
  <symbol id="question-outline" viewBox="0 0 24 24" fill="none">
    <path d="M9.879 7.519C11.05 6.494 12.95 6.494 14.121 7.519C15.293 8.544 15.293 10.206 14.121 11.231C13.918 11.41 13.691 11.557 13.451 11.673C12.706 12.034 12.001 12.672 12.001 13.5V14.25M21 12C21 13.1819 20.7672 14.3522 20.3149 15.4442C19.8626 16.5361 19.1997 17.5282 18.364 18.364C17.5282 19.1997 16.5361 19.8626 15.4442 20.3149C14.3522 20.7672 13.1819 21 12 21C10.8181 21 9.64778 20.7672 8.55585 20.3149C7.46392 19.8626 6.47177 19.1997 5.63604 18.364C4.80031 17.5282 4.13738 16.5361 3.68508 15.4442C3.23279 14.3522 3 13.1819 3 12C3 9.61305 3.94821 7.32387 5.63604 5.63604C7.32387 3.94821 9.61305 3 12 3C14.3869 3 16.6761 3.94821 18.364 5.63604C20.0518 7.32387 21 9.61305 21 12ZM12 17.25H12.008V17.258H12V17.25Z" stroke-width="1.5" stroke-linecap="round" stroke-linejoin="round"/>
  </symbol>
  <symbol id="envelope-outline" viewBox="0 0 24 24" fill="none">
    <path d="M21.75 6.75V17.25C21.75 17.8467 21.5129 18.419 21.091 18.841C20.669 19.2629 20.0967 19.5 19.5 19.5H4.5C3.90326 19.5 3.33097 19.2629 2.90901 18.841C2.48705 18.419 2.25 17.8467 2.25 17.25V6.75M21.75 6.75C21.75 6.15326 21.5129 5.58097 21.091 5.15901C20.669 4.73705 20.0967 4.5 19.5 4.5H4.5C3.90326 4.5 3.33097 4.73705 2.90901 5.15901C2.48705 5.58097 2.25 6.15326 2.25 6.75M21.75 6.75V6.993C21.75 7.37715 21.6517 7.75491 21.4644 8.0903C21.2771 8.42569 21.0071 8.70754 20.68 8.909L13.18 13.524C12.8252 13.7425 12.4167 13.8582 12 13.8582C11.5833 13.8582 11.1748 13.7425 10.82 13.524L3.32 8.91C2.99292 8.70854 2.72287 8.42669 2.53557 8.0913C2.34827 7.75591 2.24996 7.37815 2.25 6.994V6.75" stroke-width="1.5" stroke-linecap="round" stroke-linejoin="round"/>
  </symbol>
  <symbol id="cube-outline" viewBox="0 0 32 32" fill="none">
    <path d="M28 10L16 3L4 10M28 10L16 17M28 10V22L16 29M4 10L16 17M4 10V22L16 29M16 17V29" stroke-width="2" stroke-linecap="round" stroke-linejoin="round"/>
  </symbol>
  <symbol id="bell-outline" viewBox="0 0 24 24" fill="none">
    <path d="M15 17H20L18.595 15.595C18.4063 15.4063 18.2567 15.1822 18.1546 14.9357C18.0525 14.6891 18 14.4249 18 14.158V11C18.0002 9.75894 17.6156 8.54834 16.8992 7.53489C16.1829 6.52144 15.17 5.75496 14 5.341V5C14 4.46957 13.7893 3.96086 13.4142 3.58579C13.0391 3.21071 12.5304 3 12 3C11.4696 3 10.9609 3.21071 10.5858 3.58579C10.2107 3.96086 10 4.46957 10 5V5.341C7.67 6.165 6 8.388 6 11V14.159C6 14.697 5.786 15.214 5.405 15.595L4 17H9M15 17V18C15 18.7956 14.6839 19.5587 14.1213 20.1213C13.5587 20.6839 12.7956 21 12 21C11.2044 21 10.4413 20.6839 9.87868 20.1213C9.31607 19.5587 9 18.7956 9 18V17M15 17H9" stroke-width="2" stroke-linecap="round" stroke-linejoin="round"/>
  </symbol>
  <symbol id="check" viewBox="0 0 12 12">
    <path fill-rule="evenodd" clip-rule="evenodd" d="M10.0242 3.17567C10.1367 3.28819 10.1999 3.44077 10.1999 3.59987C10.1999 3.75897 10.1367 3.91156 10.0242 4.02407L5.2242 8.82407C5.11168 8.93655 4.9591 8.99974 4.8 8.99974C4.6409 8.99974 4.48832 8.93655 4.3758 8.82407L1.9758 6.42407C1.86651 6.31091 1.80603 6.15935 1.8074 6.00203C1.80876 5.84471 1.87186 5.69423 1.98311 5.58298C2.09435 5.47174 2.24484 5.40863 2.40216 5.40727C2.55948 5.4059 2.71104 5.46638 2.8242 5.57567L4.8 7.55147L9.1758 3.17567C9.28832 3.06319 9.4409 3 9.6 3C9.7591 3 9.91168 3.06319 10.0242 3.17567Z" />
  </symbol>
  <symbol id="calendar-outline" viewBox="0 0 20 20" fill="none">
    <path d="M6.66667 5.83333V2.5M13.3333 5.83333V2.5M5.83333 9.16667H14.1667M4.16667 17.5H15.8333C16.2754 17.5 16.6993 17.3244 17.0118 17.0118C17.3244 16.6993 17.5 16.2754 17.5 15.8333V5.83333C17.5 5.39131 17.3244 4.96738 17.0118 4.65482C16.6993 4.34226 16.2754 4.16667 15.8333 4.16667H4.16667C3.72464 4.16667 3.30072 4.34226 2.98816 4.65482C2.67559 4.96738 2.5 5.39131 2.5 5.83333V15.8333C2.5 16.2754 2.67559 16.6993 2.98816 17.0118C3.30072 17.3244 3.72464 17.5 4.16667 17.5Z" stroke-width="1.5" stroke-linecap="round" stroke-linejoin="round"/>
  </symbol>
  <symbol id="arrow-right-on-rectangle" fill="none" viewBox="0 0 24 24" stroke-width="1.5" stroke="currentColor">
    <path stroke-linecap="round" stroke-linejoin="round" d="M15.75 9V5.25A2.25 2.25 0 0013.5 3h-6a2.25 2.25 0 00-2.25 2.25v13.5A2.25 2.25 0 007.5 21h6a2.25 2.25 0 002.25-2.25V15m3 0l3-3m0 0l-3-3m3 3H9" />
  </symbol>
  <symbol id="square-3-stack-3d-outline" viewBox="0 0 24 24" fill="none">
    <path d="M6.429 9.75L2.25 12L6.429 14.25M6.429 9.75L12 12.75L17.571 9.75M6.429 9.75L2.25 7.5L12 2.25L21.75 7.5L17.571 9.75M6.429 14.25L2.25 16.5L12 21.75L21.75 16.5L17.571 14.25M6.429 14.25L12 17.25L17.571 14.25M17.571 9.75L21.75 12L17.571 14.25" stroke-width="1.5" stroke-linecap="round" stroke-linejoin="round"/>
  </symbol>
  <symbol id="cube-transparent-outline" viewBox="0 0 24 24" fill="none">
    <path d="M21 7.5L18.75 6.187M21 7.5V9.75M21 7.5L18.75 8.813M3 7.5L5.25 6.187M3 7.5L5.25 8.813M3 7.5V9.75M12 12.75L14.25 11.437M12 12.75L9.75 11.437M12 12.75V15M12 21.75L14.25 20.437M12 21.75V19.5M12 21.75L9.75 20.437M9.75 3.562L12 2.25L14.25 3.563M21 14.25V16.5L18.75 17.813M5.25 17.813L3 16.5V14.25" stroke-width="1.5" stroke-linecap="round" stroke-linejoin="round"/>
  </symbol>
  <symbol id="trophy-outline" viewBox="0 0 24 24" fill="none">
    <path d="M16.5 18.75H7.49998M16.5 18.75C17.2956 18.75 18.0587 19.0661 18.6213 19.6287C19.1839 20.1913 19.5 20.9544 19.5 21.75H4.49998C4.49998 20.9544 4.81605 20.1913 5.37866 19.6287C5.94127 19.0661 6.70433 18.75 7.49998 18.75M16.5 18.75V15.375C16.5 14.754 15.997 14.25 15.375 14.25H14.504M7.49998 18.75V15.375C7.49998 14.754 8.00398 14.25 8.62498 14.25H9.49698M14.504 14.25H9.49698M14.504 14.25C13.9423 13.28 13.6067 12.1957 13.522 11.078M9.49698 14.25C10.0583 13.2799 10.3936 12.1956 10.478 11.078M13.522 11.078C14.5299 10.8454 15.4697 10.3834 16.27 9.728M13.522 11.078C12.5205 11.309 11.4795 11.309 10.478 11.078M10.478 11.078C9.47038 10.8452 8.53002 10.3833 7.72998 9.728M5.24998 4.236C4.26798 4.379 3.29598 4.553 2.33398 4.756C2.55698 6.06479 3.20756 7.26273 4.18393 8.16238C5.16029 9.06202 6.40736 9.61261 7.72998 9.728M5.24998 4.236V4.5C5.24998 6.608 6.21598 8.49 7.72998 9.728M5.24998 4.236V2.721C7.45598 2.41 9.70998 2.25 12 2.25C14.291 2.25 16.545 2.41 18.75 2.72V4.236M18.75 4.236V4.5C18.75 6.608 17.784 8.49 16.27 9.728M18.75 4.236C19.7273 4.3782 20.6998 4.55163 21.666 4.756C21.443 6.06464 20.7926 7.26246 19.8164 8.16209C18.8403 9.06172 17.5924 9.6124 16.27 9.728" stroke-width="1.5" stroke-linecap="round" stroke-linejoin="round"/>
  </symbol>
  <symbol id="cursor-arrow-ripple-outline" viewBox="0 0 24 24" fill="none">
    <path d="M15.042 21.6718L13.684 16.5998M13.684 16.5998L11.174 18.8248L11.743 9.35478L16.97 17.2718L13.684 16.5998ZM6.166 16.3328C5.20672 15.3734 4.49886 14.1922 4.1051 12.8939C3.71135 11.5956 3.64386 10.2202 3.90861 8.88957C4.17337 7.55895 4.76219 6.31415 5.62293 5.26544C6.48367 4.21673 7.58976 3.39649 8.84322 2.87736C10.0967 2.35823 11.4588 2.15624 12.809 2.28928C14.1592 2.42231 15.4557 2.88628 16.5837 3.64007C17.7118 4.39386 18.6365 5.41422 19.276 6.61075C19.9155 7.80728 20.25 9.14307 20.25 10.4998M8.288 14.2118C7.67742 13.6013 7.22684 12.8497 6.97615 12.0234C6.72547 11.1972 6.68243 10.3219 6.85084 9.4751C7.01926 8.62827 7.39393 7.83605 7.94167 7.16862C8.48941 6.50119 9.1933 5.97915 9.991 5.64875C10.7887 5.31835 11.6556 5.18979 12.5148 5.27446C13.3741 5.35912 14.1992 5.6544 14.917 6.13414C15.6349 6.61387 16.2234 7.26325 16.6303 8.02475C17.0373 8.78625 17.2501 9.63636 17.25 10.4998" stroke-width="1.5" stroke-linecap="round" stroke-linejoin="round"/>
  </symbol>






  <symbol id="social-x" viewBox="0 0 24 24">
    <path d="M3.04389 3L9.99348 12.3765L3 20H4.57395L10.6967 13.3255L15.6438 20H21L13.6594 10.0961L20.1689 3H18.5949L12.9561 9.14707L8.40011 3H3.04389ZM5.3585 4.16989H7.81916L18.685 18.8299H16.2244L5.3585 4.16989Z" />
  </symbol>
  <symbol id="social-github" viewBox="0 0 20 20">
    <path d="M10 0.24707C4.475 0.24707 0 4.72457 0 10.2471C0 14.6662 2.865 18.4137 6.8375 19.7346C7.3375 19.8287 7.52083 19.5196 7.52083 19.2537C7.52083 19.0162 7.5125 18.3871 7.50833 17.5537C4.72667 18.1571 4.14 16.2121 4.14 16.2121C3.685 15.0579 3.0275 14.7496 3.0275 14.7496C2.12167 14.1296 3.0975 14.1421 3.0975 14.1421C4.10167 14.2121 4.62917 15.1721 4.62917 15.1721C5.52083 16.7012 6.97 16.2596 7.54167 16.0037C7.63167 15.3571 7.88917 14.9162 8.175 14.6662C5.95417 14.4162 3.62 13.5562 3.62 9.72457C3.62 8.6329 4.0075 7.74124 4.64917 7.04124C4.53667 6.78874 4.19917 5.77207 4.73667 4.39457C4.73667 4.39457 5.57417 4.12624 7.48667 5.41957C8.28667 5.19707 9.13667 5.08707 9.98667 5.08207C10.8367 5.08707 11.6867 5.19707 12.4867 5.41957C14.3867 4.12624 15.2242 4.39457 15.2242 4.39457C15.7617 5.77207 15.4242 6.78874 15.3242 7.04124C15.9617 7.74124 16.3492 8.6329 16.3492 9.72457C16.3492 13.5662 14.0117 14.4121 11.7867 14.6579C12.1367 14.9579 12.4617 15.5712 12.4617 16.5079C12.4617 17.8462 12.4492 18.9212 12.4492 19.2462C12.4492 19.5087 12.6242 19.8212 13.1367 19.7212C17.1375 18.4096 20 14.6596 20 10.2471C20 4.72457 15.5225 0.24707 10 0.24707Z"/>
  </symbol>
  <symbol id="social-globe" viewBox="0 0 24 24">
    <path fill-rule="evenodd" clip-rule="evenodd" d="M8.75221 2.80467C10.3335 2.24565 12.0325 2.10391 13.685 2.39351C15.3515 2.68556 16.9133 3.40625 18.217 4.48474C19.5206 5.56322 20.5211 6.96237 21.1202 8.54466C21.7193 10.1269 21.8964 11.8379 21.634 13.5093C21.367 15.2098 20.6546 16.8092 19.5693 18.1452C18.4839 19.4811 17.0642 20.5059 15.4544 21.1154C13.8447 21.7249 12.1023 21.8974 10.4043 21.6154C8.70628 21.3333 7.11321 20.6068 5.78696 19.5096C4.46071 18.4124 3.44857 16.9836 2.85338 15.3685C2.2582 13.7534 2.10119 12.0095 2.39832 10.3141C2.69544 8.61868 3.43611 7.03212 4.54504 5.71567C5.64528 4.40955 7.06912 3.41551 8.67388 2.83274C8.69937 2.82197 8.72552 2.81259 8.75221 2.80467ZM7.20365 5.28606C6.64597 5.68479 6.13776 6.15318 5.69226 6.68205C4.75393 7.79597 4.12721 9.13844 3.8758 10.573C3.62439 12.0076 3.75724 13.4832 4.26086 14.8498C4.76447 16.2165 5.6209 17.4254 6.74311 18.3538C7.86532 19.2822 9.21331 19.897 10.6501 20.1356C12.0869 20.3743 13.5612 20.2283 14.9233 19.7126C16.2854 19.1969 17.4867 18.3297 18.4051 17.1993C19.2444 16.1662 19.8202 14.9468 20.0855 13.6461L19.2277 12.7883C19 12.5602 18.81 12.2964 18.666 12.008L17.7647 10.2054C17.6514 10.2672 17.5305 10.3151 17.4044 10.3477C17.1322 10.4181 16.8461 10.4144 16.5757 10.3371L15.3061 9.97502C15.3058 9.97495 15.3063 9.97508 15.3061 9.97502C15.2742 9.96626 15.2396 9.96882 15.2096 9.98264C15.1794 9.99656 15.1551 10.0208 15.1411 10.051C15.1272 10.0812 15.1244 10.1154 15.1333 10.1475C15.1422 10.1791 15.1619 10.2066 15.1889 10.2252C15.1893 10.2254 15.1896 10.2257 15.19 10.2259L15.7753 10.6148C16.7559 11.2713 16.8985 12.6622 16.0604 13.5003L15.8604 13.7003C15.7891 13.7716 15.7501 13.8668 15.7501 13.966V14.376C15.7501 14.9194 15.6039 15.453 15.3231 15.92L14.0083 18.1107C14.0082 18.1108 14.0084 18.1106 14.0083 18.1107C13.7542 18.5343 13.3946 18.8852 12.9647 19.1287C12.5348 19.3721 12.0491 19.5001 11.5551 19.5M20.246 11.6834C20.151 11.58 20.0709 11.4638 20.0081 11.338L18.9279 9.17759C18.8452 9.01277 18.7242 8.86917 18.5756 8.7601C18.4269 8.65102 18.2545 8.57882 18.0724 8.54944C17.8904 8.52006 17.704 8.53435 17.5286 8.59112C17.3531 8.6479 17.1937 8.74553 17.0634 8.87599C17.0537 8.8857 17.0422 8.89203 17.0289 8.89547C17.0156 8.89891 17.0016 8.89873 16.9884 8.89495L15.7147 8.53175L15.712 8.53099C15.3367 8.42548 14.9361 8.45712 14.582 8.62024C14.2279 8.78337 13.9435 9.0673 13.7798 9.42112C13.6161 9.77494 13.5838 10.1755 13.6886 10.551C13.7935 10.9265 14.0287 11.2523 14.3521 11.4701L14.356 11.4727L14.9408 11.8612C14.9405 11.8611 14.9411 11.8614 14.9408 11.8612C15.1395 11.9949 15.1654 12.274 14.9997 12.4397L14.7997 12.6397C14.447 12.9924 14.2501 13.4692 14.2501 13.966V14.376C14.2501 14.6504 14.1763 14.9164 14.0374 15.1473L12.722 17.339C12.6012 17.5406 12.43 17.7076 12.2256 17.8234C12.0211 17.9392 11.7901 18 11.5552 18C11.4743 18 11.3966 17.9679 11.3394 17.9107C11.2822 17.8535 11.2501 17.7759 11.2501 17.695V16.523C11.2501 15.2963 10.5033 14.1937 9.36488 13.7378L8.70978 13.4767C8.70993 13.4768 8.70963 13.4767 8.70978 13.4767C8.39227 13.3495 8.12732 13.1174 7.95969 12.8192C7.79199 12.5209 7.73133 12.1742 7.78778 11.8367L7.79479 11.7946C7.82578 11.6092 7.89137 11.4312 7.98813 11.2699L8.07802 11.1201C8.07798 11.1202 8.07807 11.12 8.07802 11.1201C8.23724 10.8551 8.47459 10.6455 8.75734 10.5205C9.04018 10.3954 9.35477 10.3608 9.65803 10.4215L10.8357 10.6574C11.2977 10.7495 11.7781 10.6645 12.1802 10.419C12.5823 10.1735 12.8773 9.7856 13.0063 9.33252L13.2142 8.60305C13.3343 8.18273 13.3037 7.73365 13.1278 7.33346C12.9519 6.93327 12.6417 6.60711 12.2509 6.41138L11.5851 6.07898C11.2964 5.93486 10.9479 5.99152 10.7197 6.21968L10.6287 6.31067C10.6287 6.31067 10.6287 6.31067 10.6287 6.31067C10.4894 6.44996 10.3241 6.56045 10.1421 6.63583C9.9601 6.71121 9.76504 6.75001 9.56806 6.75001H9.38805C8.9381 6.75001 8.51079 6.93041 8.19724 7.24216L8.19334 7.24607C8.16215 7.27754 8.12052 7.29647 8.07631 7.2993C8.0321 7.30212 7.9884 7.28863 7.95347 7.26139C7.91854 7.23415 7.89481 7.19505 7.88677 7.15149C7.87874 7.10793 7.88696 7.06293 7.90988 7.02502L7.91127 7.02272L9.3218 4.67049C9.32176 4.67056 9.32185 4.67041 9.3218 4.67049C9.42869 4.49269 9.51676 4.30443 9.58458 4.10926C10.8266 3.72861 12.1429 3.64612 13.4261 3.87099C14.8362 4.11812 16.1577 4.72793 17.2608 5.64049C18.3639 6.55305 19.2105 7.73695 19.7174 9.07581C20.0348 9.91397 20.2122 10.7948 20.246 11.6834ZM7.20365 5.28606L6.62622 6.24899C6.62596 6.24942 6.62571 6.24985 6.62545 6.25027C6.4132 6.60207 6.33713 7.01943 6.41165 7.42351C6.48625 7.82808 6.70663 8.19125 7.03104 8.44424C7.35545 8.69723 7.76138 8.82247 8.17193 8.79624C8.58249 8.77002 8.96918 8.59415 9.25877 8.30194L8.72605 7.77401L9.25486 8.30585C9.29132 8.2696 9.34 8.25001 9.38805 8.25001H9.56804C9.96201 8.25001 10.3521 8.17241 10.7161 8.02165C10.9495 7.92497 11.1692 7.79942 11.3703 7.64832L11.5792 7.75263C11.5792 7.75261 11.5793 7.75264 11.5792 7.75263C11.6574 7.79178 11.7195 7.85703 11.7546 7.93704C11.7898 8.01708 11.7959 8.1069 11.7719 8.19096L11.5638 8.92149C11.5379 9.0121 11.479 9.08969 11.3985 9.13879C11.3181 9.18789 11.2222 9.20492 11.1298 9.18649L9.95238 8.95062C9.34586 8.82937 8.71639 8.89849 8.15072 9.14863C7.58504 9.39877 7.1105 9.81764 6.79208 10.3479L6.70197 10.4981C6.70199 10.498 6.70196 10.4981 6.70197 10.4981C6.50848 10.8205 6.37728 11.1765 6.31531 11.5474L6.30833 11.5893C6.30835 11.5892 6.3083 11.5894 6.30833 11.5893C6.19554 12.2642 6.31682 12.9578 6.65216 13.5543C6.98758 14.1509 7.51691 14.6149 8.15232 14.8693L8.80723 15.1302C8.80709 15.1302 8.80736 15.1303 8.80723 15.1302C9.37657 15.3584 9.75005 15.9099 9.75005 16.523V17.695C9.75005 18.1737 9.94022 18.6328 10.2787 18.9713C10.6172 19.3098 11.0764 19.5 11.5551 19.5" />
  </symbol>
</svg>
